# xmcd CD database file
#
# Track frame offsets:
#	150
#	20776
#	38516
#	61427
#	86631
#	108301
#	129902
#	151294
#	186010
#	200948
#	222688
#	240536
#	258631
#	282437
#	303066
#	327110
#
# Disc length: 4713 seconds
#
# Revision: 0
# Processed by: cddbd v1.5.2PL0 Copyright (c) Steve Scherf et al.
# Submitted via: CDex 1.51
#
DISCID=e7126710
DTITLE=JIMMY SMITH - PLAYS RED HOT BLUES
DYEAR=1900
DGENRE=Jazz
TTITLE0=ONLY IN IT FOR THE MONEY
TTITLE1=I JUST WANNA MAKE LOVE TO YOU
TTITLE2=STRUT
TTITLE3=FEVER
TTITLE4=DELON'S BLUES
TTITLE5=BLUES IN THE NIGHT
TTITLE6=HOBO FLATS
TTITLE7=THE SERMON
TTITLE8=ST. LOUIS BLUES
TTITLE9=BLUES FOR 3+1
TTITLE10=CHICAGO SERENADE
TTITLE11=BASIN STREET BLUES
TTITLE12=BLUES FOR J
TTITLE13=THREE O'CLOCK BLUES
TTITLE14=DOT COM BLUES
TTITLE15=TUITION BLUES
EXTD=
EXTT0=
EXTT1=
EXTT2=
EXTT3=
EXTT4=
EXTT5=
EXTT6=
EXTT7=
EXTT8=
EXTT9=
EXTT10=
EXTT11=
EXTT12=
EXTT13=
EXTT14=
EXTT15=
PLAYORDER=
